<svg width="1612" height="1087" viewBox="0 0 1612 1087" fill="none" xmlns="http://www.w3.org/2000/svg">
<g clip-path="url(#clip0_119_62)">
<path d="M806 762C1005.93 762 1168 591.42 1168 381C1168 170.58 1005.93 0 806 0C606.073 0 444 170.58 444 381C444 591.42 606.073 762 806 762Z" fill="#FC6E00"/>
<path d="M595.758 671.926C674.2 602.038 724 497.64 724 381C724 264.398 674.233 160.031 595.835 90.1428C595.068 90.8811 593.844 92.0462 593.319 92.4799C556.155 123.211 523.668 161.322 501 205.486C519.312 157.946 550.134 116.213 584.001 80.4861C584.001 80.4861 584.086 80.3861 584.242 80.2307C522.9 29.9497 445.773 0 362 0C162.073 0 0 170.58 0 381C0 591.42 162.073 762 362 762C445.656 762 522.683 732.134 583.983 681.981C550.123 646.258 519.309 604.532 501 557C523.668 601.164 556.155 639.274 593.319 670.006C593.827 670.425 594.988 671.329 595.758 671.926Z" fill="#FF1600"/>
<path d="M1249.99 762C1449.92 762 1612 591.422 1612 381C1612 170.578 1449.92 0 1249.99 0C1156.48 0 1071.24 37.3203 1007 98.582C1088.36 162.984 1140.99 265.516 1140.99 381C1140.99 496.484 1088.36 599.016 1007 663.418C1071.24 724.68 1156.48 762 1249.99 762Z" fill="#FE9400"/>
<path d="M76.804 507.209C82.673 513.068 90.149 516 98.307 516C106.397 516 114.088 513.237 119.976 507.04C125.733 501.207 128.613 493.807 128.613 485.74V406.668H245.7V485.74C245.7 493.885 248.636 501.35 254.504 507.209C260.373 513.068 267.849 516 276.006 516C284.175 516 291.935 513.184 297.845 506.861C303.376 500.944 306 493.591 306 485.74V274.26C306 266.478 303.536 258.908 297.679 252.963C291.79 246.764 284.099 244 276.006 244C267.927 244 260.516 246.876 254.674 252.623C248.467 258.503 245.7 266.182 245.7 274.26V349.896H128.613V274.26C128.613 266.257 125.897 258.646 119.812 252.788C113.945 246.712 106.322 244 98.307 244C90.227 244 82.816 246.876 76.974 252.623C70.767 258.503 68 266.182 68 274.26V485.74C68 493.885 70.936 501.35 76.804 507.209Z" fill="white"/>
<path fill-rule="evenodd" clip-rule="evenodd" d="M391.801 497.451L406.154 462.271H498.974L512.996 497.193L513.006 497.217C515.248 502.826 518.937 507.537 523.938 511.009L524.435 511.354L524.959 511.654C529.816 514.437 535.2 516 540.93 516C551.072 516 560.277 511.792 566.077 502.704C571.888 493.727 572.33 483.613 568.584 474.054L568.527 473.908L480.709 263.769C478.612 258.247 475.216 253.079 470.001 249.344C464.651 245.513 458.519 244 452.451 244C446.398 244 440.428 245.609 435.212 249.344C430.101 253.005 426.637 258.043 424.336 263.429L424.313 263.482L336.798 473.016C332.591 482.626 333.047 492.814 338.72 501.915C344.357 510.957 353.273 516 363.971 516C369.621 516 374.87 514.365 379.521 511.538C385.153 508.252 389.211 503.386 391.733 497.605L391.801 497.451ZM428.553 407.373L452.935 347.613L476.931 407.373H428.553Z" fill="white"/>
<path fill-rule="evenodd" clip-rule="evenodd" d="M607.804 507.209C613.672 513.068 621.148 516 629.306 516C637.396 516 645.086 513.237 650.974 507.04C656.731 501.207 659.611 493.807 659.611 485.74V431.346H691.874C709.57 431.346 725.829 427.558 740.264 419.606C754.59 411.714 765.864 400.614 773.834 386.474C782.053 372.264 786 356.284 786 338.922C786 321.06 782.108 304.697 773.911 290.258C765.999 275.743 754.773 264.294 740.425 256.142C725.96 247.925 709.643 244 691.874 244H629.306C621.226 244 613.815 246.876 607.973 252.624C601.767 258.503 599 266.182 599 274.26V485.74C599 493.885 601.936 501.35 607.804 507.209ZM722.072 319.348L722.11 319.419L722.15 319.49C724.984 324.583 726.64 330.912 726.64 338.922C726.64 346.144 725.056 352.026 722.233 356.958C719.305 362.074 715.373 366 710.25 368.923C705.356 371.716 699.375 373.324 691.874 373.324H659.611V302.022H691.874C699.255 302.022 705.141 303.678 709.992 306.584C715.065 309.624 719.06 313.784 722.072 319.348Z" fill="white"/>
<path fill-rule="evenodd" clip-rule="evenodd" d="M821.8 507.209C827.67 513.068 835.15 516 843.31 516C851.4 516 859.09 513.237 864.97 507.04C870.73 501.207 873.61 493.807 873.61 485.74V431.346H905.87C923.57 431.346 939.83 427.558 954.26 419.606C968.59 411.714 979.86 400.614 987.83 386.474C996.05 372.264 1000 356.284 1000 338.922C1000 321.06 996.11 304.697 987.91 290.258C980 275.743 968.77 264.294 954.42 256.142C939.96 247.925 923.64 244 905.87 244H843.31C835.23 244 827.82 246.876 821.97 252.624C815.77 258.503 813 266.182 813 274.26V485.74C813 493.885 815.94 501.35 821.8 507.209ZM936.07 319.348L936.11 319.419L936.15 319.49C938.98 324.583 940.64 330.912 940.64 338.922C940.64 346.144 939.06 352.026 936.23 356.958C933.31 362.074 929.37 366 924.25 368.923C919.36 371.716 913.38 373.324 905.87 373.324H873.61V302.022H905.87C913.25 302.022 919.14 303.678 923.99 306.584C929.07 309.624 933.06 313.784 936.07 319.348Z" fill="white"/>
<path d="M1058.31 520C1050.15 520 1042.67 517.068 1036.8 511.209C1030.94 505.35 1028 497.885 1028 489.74V278.26C1028 270.182 1030.77 262.503 1036.97 256.623C1042.82 250.876 1050.23 248 1058.31 248C1066.32 248 1073.94 250.712 1079.81 256.788C1085.9 262.646 1088.61 270.257 1088.61 278.26V353.896V489.74C1088.61 497.807 1085.73 505.207 1079.98 511.04C1074.09 517.237 1066.4 520 1058.31 520Z" fill="white"/>
<path d="M1427.22 237.5C1451.47 237.5 1473.07 243.472 1491.96 255.468H1491.96C1510.8 267.109 1525.53 283.396 1536.14 304.259L1536.64 305.227C1547.24 325.605 1552.5 349.134 1552.5 375.744C1552.5 402.447 1547.22 426.282 1536.6 447.189L1536.6 447.197L1536.6 447.204C1525.98 467.764 1511.25 484.055 1492.41 496.021L1492.39 496.029L1492.38 496.037C1473.49 507.701 1451.74 513.5 1427.22 513.5C1402.7 513.5 1380.96 507.701 1362.07 496.037L1362.05 496.029L1362.04 496.021C1343.2 484.059 1328.33 467.777 1317.42 447.229L1317.41 447.21L1317.4 447.189C1306.78 426.282 1301.5 402.447 1301.5 375.744C1301.5 348.722 1306.77 324.878 1317.4 304.284L1317.41 304.272C1328.31 283.404 1343.19 267.112 1362.04 255.468C1380.93 243.469 1402.69 237.5 1427.22 237.5ZM1427.22 286.446C1412.19 286.446 1398.98 290.233 1387.52 297.755C1376.02 305.298 1366.94 315.845 1360.27 329.479L1360.26 329.489L1360.26 329.499C1353.61 342.769 1350.25 358.163 1350.25 375.744C1350.25 393.326 1353.61 408.719 1360.26 421.989C1366.92 435.297 1376.01 445.692 1387.52 453.245C1398.98 460.767 1412.19 464.554 1427.22 464.554C1442.26 464.554 1455.46 460.767 1466.93 453.245C1478.43 445.699 1487.36 435.317 1493.72 422.028L1493.74 421.989C1500.39 408.719 1503.75 393.326 1503.75 375.744C1503.75 358.163 1500.39 342.769 1493.74 329.499L1493.73 329.47L1493.71 329.439C1487.34 315.824 1478.41 305.292 1466.93 297.755C1455.46 290.233 1442.26 286.446 1427.22 286.446Z" fill="white" stroke="white" stroke-width="5"/>
<path d="M1241.31 516C1233.15 516 1225.67 513.068 1219.8 507.209C1213.94 501.35 1211 493.885 1211 485.74V274.26C1211 266.182 1213.77 258.503 1219.97 252.623C1225.82 246.876 1233.23 244 1241.31 244C1249.32 244 1256.94 246.712 1262.81 252.788C1268.9 258.646 1271.61 266.257 1271.61 274.26V349.896V485.74C1271.61 493.807 1268.73 501.207 1262.98 507.04C1257.09 513.237 1249.4 516 1241.31 516Z" fill="white"/>
<path fill-rule="evenodd" clip-rule="evenodd" d="M1229.01 273.59L1257.77 268.078C1261.13 271.717 1265.64 276.634 1270.18 281.637L1217.73 341.019C1212.68 346.734 1206.25 349.936 1199 349.99C1191.43 350.209 1184.89 346.718 1179.83 340.986C1174.72 335.206 1171.88 327.832 1171.87 319.522C1171.87 311.214 1174.7 303.845 1179.8 298.074L1217.84 255.001L1229.01 273.59Z" fill="white"/>
<path d="M448.583 856.422L448.636 856.477L448.692 856.53C451.397 859.093 454.671 860.424 458.376 860.424C462.085 860.424 465.335 859.088 467.954 856.477C470.648 853.79 472.074 850.508 472.074 846.764C472.074 843.04 470.661 839.802 467.954 837.213C465.357 834.514 462.111 833.104 458.376 833.104C454.622 833.104 451.331 834.527 448.637 837.213C446.018 839.825 444.679 843.066 444.679 846.764C444.679 850.459 446.013 853.724 448.583 856.422Z" fill="white"/>
<path fill-rule="evenodd" clip-rule="evenodd" d="M1442.59 986.593L1442.57 986.619C1441.3 989.357 1440.82 992.233 1441.85 994.941C1442.89 997.64 1445.17 999.5 1447.95 1000.76L1447.98 1000.78L1448.01 1000.79C1449.72 1001.52 1451.44 1002 1453.09 1002C1455.16 1002 1457.09 1001.39 1458.72 1000.1C1460.29 998.85 1461.4 997.13 1462.18 995.151L1511.73 884.042L1511.74 884.029C1513.01 881.242 1513.48 878.321 1512.4 875.598C1511.32 872.879 1508.96 871.061 1506.12 869.864L1506.11 869.86C1503.35 868.709 1500.5 868.329 1497.84 869.339C1495.18 870.35 1493.31 872.523 1492.03 875.213L1492.01 875.251L1491.99 875.288L1468.52 928.176L1441.7 875.057L1441.68 875.022C1440.44 872.424 1438.51 870.463 1435.84 869.501C1433.2 868.437 1430.44 868.581 1427.77 869.701C1425.05 870.843 1423.01 872.776 1421.82 875.446L1421.8 875.484L1421.79 875.522C1420.63 878.316 1420.98 881.188 1422.39 883.874L1458.13 951.573L1442.59 986.593Z" fill="black"/>
<path fill-rule="evenodd" clip-rule="evenodd" d="M1373.36 906.56C1373.36 901.167 1374.93 896.974 1377.9 893.73C1380.97 890.493 1384.81 888.865 1389.64 888.865C1394.37 888.865 1397.94 890.3 1400.65 892.999L1400.67 893.016L1400.68 893.033C1403.22 895.486 1404.79 899.561 1404.79 905.913V952.136C1404.79 955.205 1405.8 957.945 1407.87 960.158L1407.94 960.234L1408.02 960.304C1410.23 962.369 1412.98 963.372 1416.06 963.372C1419.2 963.372 1422.01 962.393 1424.18 960.232L1424.21 960.196L1424.25 960.158C1426.32 957.945 1427.33 955.205 1427.33 952.136V905.913C1427.33 898.141 1425.92 891.347 1422.95 885.654C1420.12 879.895 1416.05 875.45 1410.74 872.442C1405.47 869.461 1399.5 868.01 1392.88 868.01C1385.42 868.01 1378.64 869.619 1372.64 872.905L1372.63 872.911L1372.62 872.917C1369.62 874.59 1366.96 876.602 1364.63 878.949C1362.41 876.33 1359.79 874.153 1356.77 872.442C1351.51 869.461 1345.53 868.01 1338.91 868.01C1332.04 868.01 1325.82 869.643 1320.34 872.972C1319.5 873.48 1318.69 874.018 1317.91 874.586C1317.44 873.695 1316.83 872.869 1316.08 872.119C1313.91 869.959 1311.1 868.98 1307.96 868.98C1304.88 868.98 1302.13 869.983 1299.91 872.048L1299.88 872.083L1299.84 872.119C1297.67 874.28 1296.69 877.082 1296.69 880.216V952.136C1296.69 955.205 1297.7 957.945 1299.77 960.158L1299.84 960.234L1299.91 960.304C1302.13 962.369 1304.88 963.372 1307.96 963.372C1311.1 963.372 1313.91 962.393 1316.08 960.232L1316.11 960.196L1316.15 960.158C1318.22 957.945 1319.23 955.205 1319.23 952.136V906.56C1319.23 901.182 1320.84 896.995 1323.92 893.746C1326.99 890.498 1330.83 888.865 1335.67 888.865C1340.4 888.865 1343.97 890.3 1346.68 892.999L1346.7 893.016L1346.71 893.033C1349.25 895.486 1350.82 899.561 1350.82 905.913V952.136C1350.82 955.205 1351.83 957.945 1353.9 960.158L1353.97 960.234L1354.05 960.304C1356.26 962.369 1359.01 963.372 1362.09 963.372C1365.23 963.372 1368.04 962.393 1370.21 960.232L1370.25 960.196L1370.28 960.158C1372.35 957.945 1373.36 955.205 1373.36 952.136V906.56Z" fill="black"/>
<path fill-rule="evenodd" clip-rule="evenodd" d="M1252.84 868.174C1243.84 868.174 1235.74 870.223 1228.64 874.398C1221.57 878.447 1216 884.124 1211.97 891.37L1211.96 891.385C1208.01 898.572 1206.08 906.84 1206.08 916.097C1206.08 925.283 1208.13 933.564 1212.31 940.855L1212.32 940.88L1212.34 940.904C1216.61 948.04 1222.45 953.687 1229.81 957.817L1229.84 957.831L1229.86 957.844C1237.37 961.878 1245.87 963.858 1255.27 963.858C1260.61 963.858 1266.12 962.875 1271.78 960.956C1277.54 959.043 1282.45 956.531 1286.45 953.369C1288.89 951.497 1290.37 948.946 1290.19 945.831C1290.03 942.897 1288.54 940.421 1286.27 938.419L1286.24 938.398L1286.22 938.378C1284.21 936.686 1281.8 935.927 1279.17 936.054C1276.67 936.072 1274.36 936.904 1272.3 938.411L1272.28 938.421L1272.27 938.43C1270.42 939.811 1267.86 941.14 1264.48 942.367C1261.32 943.448 1258.25 943.973 1255.27 943.973C1249.56 943.973 1244.63 942.73 1240.38 940.324C1236.08 937.887 1232.74 934.599 1230.31 930.431C1229.28 928.654 1228.46 926.761 1227.86 924.747H1285.74C1288.55 924.747 1291.09 923.884 1293.12 922.014L1293.17 921.973L1293.21 921.931C1295.2 919.948 1296.2 917.454 1296.2 914.643C1296.2 905.759 1294.51 897.808 1291.03 890.866C1287.66 883.802 1282.68 878.246 1276.13 874.276C1269.53 870.164 1261.72 868.174 1252.84 868.174ZM1252.84 888.059C1247.14 888.059 1242.41 889.301 1238.53 891.653C1234.72 894.034 1231.81 897.307 1229.78 901.548L1229.77 901.56V901.572C1229.11 902.922 1228.55 904.341 1228.1 905.831H1274.66C1274.18 903.849 1273.51 902 1272.67 900.276L1272.66 900.263V900.25C1270.83 896.405 1268.26 893.444 1264.97 891.285C1261.76 889.185 1257.77 888.059 1252.84 888.059Z" fill="black"/>
<path fill-rule="evenodd" clip-rule="evenodd" d="M1130.06 957.616L1130.08 957.63L1130.1 957.644C1137.4 961.801 1145.54 963.857 1154.45 963.857C1163.35 963.857 1171.45 961.801 1178.64 957.634L1178.66 957.625L1178.67 957.616C1185.81 953.366 1191.47 947.607 1195.62 940.379C1199.9 933.1 1202.02 924.926 1202.02 915.934V842.236C1202.02 839.102 1201.03 836.3 1198.87 834.139C1196.7 831.979 1189.89 831 1186.75 831C1183.67 831 1184.92 832.002 1182.7 834.068L1182.67 834.103L1182.63 834.139C1180.46 836.3 1179.48 839.102 1179.48 842.236V878.523C1176.7 876.155 1173.6 874.153 1170.19 872.518C1164.35 869.612 1158.01 868.172 1151.2 868.172C1142.79 868.172 1135.15 870.306 1128.37 874.612C1121.65 878.779 1116.33 884.506 1112.42 891.724V891.732L1112.41 891.739C1108.59 898.904 1106.71 906.993 1106.71 915.934C1106.71 924.919 1108.77 933.089 1112.94 940.369L1112.95 940.384L1112.96 940.399C1117.21 947.616 1122.92 953.368 1130.06 957.616ZM1167.6 892.289L1167.63 892.304L1167.65 892.318C1171.5 894.623 1174.54 897.784 1176.77 901.856C1178.99 905.887 1180.13 910.553 1180.13 915.934C1180.13 921.196 1178.99 925.876 1176.76 930.038C1174.52 934.218 1171.48 937.481 1167.63 939.887C1163.82 942.159 1159.45 943.325 1154.45 943.325C1149.56 943.325 1145.19 942.167 1141.25 939.878C1137.4 937.471 1134.31 934.202 1131.96 930.014C1129.73 925.858 1128.6 921.186 1128.6 915.934C1128.6 910.562 1129.74 905.903 1131.95 901.878C1134.29 897.793 1137.38 894.625 1141.24 892.318L1141.25 892.312L1141.26 892.307C1145.2 889.911 1149.57 888.704 1154.45 888.704C1159.44 888.704 1163.8 889.917 1167.6 892.289Z" fill="black"/>
<path fill-rule="evenodd" clip-rule="evenodd" d="M1059.66 868.174C1050.74 868.174 1042.59 870.291 1035.3 874.564C1028.14 878.706 1022.43 884.411 1018.18 891.632L1018.17 891.647L1018.16 891.662C1013.99 898.942 1011.93 907.112 1011.93 916.097C1011.93 925.038 1013.81 933.173 1017.62 940.436L1017.63 940.461L1017.65 940.486C1021.56 947.594 1026.87 953.306 1033.58 957.57L1033.59 957.58L1033.61 957.59C1040.38 961.784 1048.01 963.858 1056.42 963.858C1064.83 963.858 1072.46 961.784 1079.23 957.59L1079.25 957.58L1079.27 957.57C1081.22 956.327 1083.05 954.959 1084.76 953.47C1085.02 956.001 1086.01 958.273 1087.78 960.16L1087.85 960.236L1087.92 960.306C1090.14 962.371 1092.89 963.374 1095.97 963.374C1099.04 963.374 1101.78 962.369 1103.92 960.234C1106.13 958.034 1107.23 955.269 1107.23 952.138V914.133L1107.2 914.118C1106.91 905.899 1104.8 898.388 1100.83 891.644C1096.68 884.417 1091.02 878.709 1083.87 874.566C1076.68 870.288 1068.58 868.174 1059.66 868.174ZM1085.35 916.097C1085.35 921.353 1084.21 926.028 1081.98 930.186C1079.75 934.255 1076.71 937.475 1072.84 939.889C1069.04 942.16 1064.67 943.327 1059.66 943.327C1054.78 943.327 1050.4 942.169 1046.47 939.88C1042.61 937.465 1039.51 934.242 1037.17 930.165C1034.95 926.012 1033.82 921.344 1033.82 916.097C1033.82 910.722 1034.96 906.061 1037.17 902.033C1039.52 897.834 1042.61 894.62 1046.46 892.32L1046.47 892.314L1046.48 892.309C1050.42 889.913 1054.79 888.706 1059.66 888.706C1064.66 888.706 1069.01 889.919 1072.82 892.291L1072.84 892.306L1072.87 892.32C1076.7 894.614 1079.73 897.815 1081.97 901.993L1081.98 902.006L1081.99 902.019C1084.2 906.05 1085.35 910.716 1085.35 916.097Z" fill="black"/>
<path fill-rule="evenodd" clip-rule="evenodd" d="M853.629 956.212L862.162 935.412H915.68L924.576 956.16C925.438 958.308 926.833 960.074 928.733 961.385L928.839 961.459L928.952 961.523C930.883 962.623 932.959 963.21 935.141 963.21C939.157 963.21 942.498 961.617 944.631 958.285C945.355 957.176 945.865 956.024 946.169 954.841C946.886 952.061 946.419 949.888 945.858 948.174C945.765 947.891 945.663 947.608 945.552 947.325L945.539 947.294L899.845 838.547C898.984 836.262 897.661 834.325 895.76 832.972C893.835 831.6 891.558 831 889.113 831C886.735 831 884.525 831.62 882.628 832.972C880.754 834.307 879.383 836.213 878.413 838.471L878.408 838.482L832.888 946.88L832.874 946.911C831.209 950.671 831.401 954.462 833.572 957.925C835.733 961.374 839.012 963.21 843.086 963.21C845.188 963.21 847.171 962.608 848.993 961.499C851.091 960.291 852.629 958.491 853.615 956.245L853.629 956.212ZM889.397 869.022L908.172 915.527H870.32L889.397 869.022Z" fill="black"/>
<path fill-rule="evenodd" clip-rule="evenodd" d="M743.908 932.199C740.813 931.74 737.917 932.877 735.356 934.912C732.917 936.782 731.428 939.306 730.993 942.341L730.984 942.404L730.978 942.466C730.667 945.565 731.73 948.34 733.882 950.629L733.915 950.665L733.949 950.699C737.906 954.644 743.289 957.805 749.933 960.276L749.962 960.286L749.99 960.296C756.822 962.681 764.184 963.858 772.051 963.858C780.004 963.858 786.843 962.634 792.436 960.026C798.021 957.471 802.388 953.964 805.345 949.429C806.224 948.13 806.975 946.784 807.599 945.393C808.634 943.085 809.321 940.64 809.654 938.113C809.816 936.888 809.897 935.637 809.897 934.36C809.897 929.566 808.751 925.231 806.365 921.466C803.944 917.535 800.061 914.308 795.007 911.672C790 909.005 783.314 906.887 775.076 905.244C769.328 904.076 765.114 902.938 762.332 901.853C759.601 900.681 758.174 899.592 757.541 898.769C756.901 897.662 756.576 896.454 756.576 895.087C756.576 894.07 756.83 893.295 757.27 892.651C757.725 891.987 758.493 891.296 759.763 890.661C762.605 889.294 766.179 888.544 770.592 888.544C774.469 888.544 777.778 889.003 780.561 889.864C783.19 890.678 785.712 892.189 788.124 894.498L788.139 894.513L788.155 894.527C790.234 896.462 792.772 897.669 795.662 898.193C798.691 898.742 801.576 898.285 804.058 896.583L804.109 896.548L804.159 896.511C806.457 894.792 807.94 892.473 808.109 889.606L808.11 889.596C808.268 886.756 807.209 884.197 805.303 882.007C801.702 877.596 796.903 874.209 791.021 871.794C785.085 869.356 778.364 868.174 770.916 868.174C765.075 868.174 759.444 869.145 754.04 871.09C748.533 872.964 743.929 875.924 740.317 880C736.512 884.183 734.691 889.455 734.691 895.571C734.691 902.712 737.516 908.794 742.991 913.647L743.004 913.658L743.016 913.669C748.566 918.482 757.112 921.848 768.227 924.043L768.253 924.048L768.279 924.053C776.666 925.554 781.818 927.404 784.337 929.31L784.356 929.325L784.376 929.339C787.035 931.283 787.918 933.226 787.851 935.23C787.784 937.236 786.794 939.048 784.096 940.697L784.078 940.709L784.059 940.721C781.513 942.328 777.425 943.327 771.403 943.327C766.804 943.327 762.683 942.534 758.997 940.994C755.201 939.25 752.715 937.526 751.274 935.92L751.253 935.897L751.231 935.874C749.252 933.759 746.775 932.503 743.908 932.199Z" fill="black"/>
<path fill-rule="evenodd" clip-rule="evenodd" d="M670.877 932.199C667.782 931.74 664.886 932.877 662.325 934.912C659.886 936.782 658.397 939.306 657.962 942.341L657.953 942.404L657.947 942.466C657.636 945.565 658.698 948.34 660.851 950.629L660.884 950.665L660.918 950.699C664.874 954.644 670.257 957.805 676.902 960.276L676.93 960.286L676.959 960.296C683.791 962.681 691.153 963.858 699.02 963.858C706.973 963.858 713.812 962.634 719.405 960.026C724.99 957.471 729.357 953.964 732.314 949.429C733.192 948.13 733.944 946.784 734.567 945.393C734.328 944.556 734.254 943.679 734.346 942.764C734.608 940.931 735.368 939.38 736.623 938.113C736.785 936.888 736.866 935.637 736.866 934.36C736.866 929.566 735.719 925.231 733.334 921.466C730.913 917.535 727.029 914.308 721.976 911.672C716.969 909.005 710.282 906.887 702.045 905.244C696.297 904.076 692.083 902.938 689.301 901.853C686.57 900.681 685.143 899.592 684.51 898.769C683.87 897.662 683.545 896.454 683.545 895.087C683.545 894.07 683.799 893.295 684.239 892.651C684.694 891.987 685.462 891.296 686.731 890.661C689.573 889.294 693.148 888.544 697.561 888.544C701.438 888.544 704.747 889.003 707.53 889.864C710.159 890.678 712.68 892.189 715.093 894.498L715.108 894.513L715.124 894.527C717.202 896.462 719.741 897.669 722.631 898.193C725.66 898.742 728.545 898.285 731.027 896.583L731.078 896.548L731.127 896.511C733.426 894.792 734.909 892.473 735.078 889.606V889.596C735.237 886.756 734.178 884.197 732.271 882.007C728.671 877.596 723.872 874.209 717.99 871.794C712.053 869.356 705.333 868.174 697.885 868.174C692.044 868.174 686.413 869.145 681.009 871.09C675.502 872.964 670.898 875.924 667.286 880C663.481 884.183 661.66 889.455 661.66 895.571C661.66 902.712 664.485 908.794 669.96 913.647L669.972 913.658L669.985 913.669C675.535 918.482 684.081 921.848 695.195 924.043L695.222 924.048L695.248 924.053C703.635 925.554 708.787 927.404 711.306 929.31L711.325 929.325L711.345 929.339C714.003 931.283 714.887 933.226 714.82 935.23C714.753 937.236 713.763 939.048 711.065 940.697L711.046 940.709L711.028 940.721C708.482 942.328 704.394 943.327 698.371 943.327C693.773 943.327 689.652 942.534 685.966 940.994C682.17 939.25 679.684 937.526 678.243 935.92L678.221 935.897L678.2 935.874C676.221 933.759 673.744 932.503 670.877 932.199Z" fill="black"/>
<path fill-rule="evenodd" clip-rule="evenodd" d="M663.271 914.643C663.271 905.759 661.58 897.808 658.105 890.866C654.732 883.801 649.756 878.245 643.204 874.274C636.6 870.163 628.793 868.174 619.914 868.174C610.913 868.174 602.817 870.223 595.716 874.398C588.646 878.447 583.08 884.124 579.042 891.37L579.035 891.385C575.082 898.572 573.154 906.84 573.154 916.097C573.154 925.283 575.206 933.564 579.384 940.855L579.398 940.88L579.413 940.904C583.684 948.04 589.525 953.687 596.888 957.817L596.912 957.831L596.936 957.844C604.449 961.878 612.944 963.858 622.345 963.858C627.686 963.858 633.197 962.874 638.862 960.954C644.616 959.041 649.528 956.528 653.527 953.366C655.969 951.494 657.443 948.944 657.27 945.831C657.106 942.897 655.617 940.421 653.342 938.419L653.318 938.398L653.295 938.378C651.289 936.686 648.878 935.927 646.248 936.054C643.745 936.072 641.432 936.904 639.371 938.411L639.358 938.421L639.345 938.43C637.499 939.811 634.934 941.14 631.555 942.367C628.392 943.448 625.326 943.973 622.345 943.973C616.64 943.973 611.706 942.73 607.459 940.324C603.158 937.887 599.818 934.599 597.388 930.431C596.352 928.654 595.532 926.761 594.935 924.747H652.814C655.624 924.747 658.166 923.884 660.198 922.014L660.243 921.973L660.285 921.931C662.273 919.948 663.271 917.454 663.271 914.643ZM639.744 900.276C640.586 902 641.253 903.849 641.737 905.831H595.17C595.623 904.341 596.181 902.922 596.842 901.572L596.848 901.56L596.854 901.548C598.883 897.308 601.794 894.035 605.607 891.654C609.482 889.301 614.209 888.059 619.914 888.059C624.846 888.059 628.838 889.185 632.042 891.285C635.338 893.444 637.9 896.405 639.731 900.25L639.737 900.263L639.744 900.276Z" fill="black"/>
<path d="M504.34 952.136V906.56C504.34 903.147 505.253 900.264 507.023 897.794L507.037 897.774L507.051 897.753C508.902 895.077 511.417 892.921 514.675 891.297C517.889 889.694 521.528 888.865 525.65 888.865C530.223 888.865 534.114 889.755 537.405 891.443L537.45 891.466L537.496 891.488C540.81 893.049 543.444 895.473 545.423 898.855C547.343 902.138 548.417 906.579 548.417 912.378V952.136C548.417 955.205 549.423 957.945 551.493 960.158L551.564 960.234L551.64 960.304C553.859 962.369 556.607 963.372 559.684 963.372C562.76 963.372 565.5 962.367 567.641 960.232C569.847 958.032 570.951 955.267 570.951 952.136V912.378C570.951 903.066 569.153 894.996 565.391 888.305C561.778 881.687 556.726 876.63 550.255 873.22C543.931 869.723 536.784 868.01 528.891 868.01C521.304 868.01 514.372 869.677 508.164 873.065C506.585 873.926 505.087 874.87 503.671 875.895C503.159 874.433 502.343 873.105 501.192 871.958C499.026 869.797 496.216 868.818 493.074 868.818C489.997 868.818 487.248 869.821 485.029 871.886L484.991 871.921L484.955 871.958C482.788 874.119 481.807 876.921 481.807 880.054V952.136C481.807 955.205 482.812 957.945 484.883 960.158L484.954 960.234L485.029 960.304C487.248 962.369 489.997 963.372 493.074 963.372C496.216 963.372 499.026 962.393 501.192 960.232L501.229 960.196L501.264 960.158C503.335 957.945 504.34 955.205 504.34 952.136Z" fill="black"/>
<path d="M452.186 960L452.256 960.076L452.332 960.146C454.551 962.211 457.299 963.214 460.376 963.214C463.518 963.214 466.328 962.235 468.495 960.074L468.532 960.038L468.567 960C470.638 957.787 471.643 955.047 471.643 951.978V880.058C471.643 876.925 470.662 874.122 468.495 871.961C466.328 869.801 463.518 868.822 460.376 868.822C457.299 868.822 454.551 869.825 452.332 871.89L452.294 871.925L452.258 871.961C450.091 874.122 449.11 876.925 449.11 880.058V951.978C449.11 955.047 450.115 957.787 452.186 960Z" fill="black"/>
<path fill-rule="evenodd" clip-rule="evenodd" d="M354.513 891.662C358.658 884.428 364.324 878.714 371.478 874.568C378.676 870.288 386.773 868.174 395.691 868.174C404.709 868.174 412.862 870.285 420.065 874.567C427.214 878.71 432.877 884.419 437.022 891.646C441.307 898.927 443.424 907.103 443.424 916.097C443.424 925.051 441.487 933.197 437.555 940.465C433.753 947.585 428.486 953.303 421.778 957.57L421.762 957.58L421.746 957.59C414.971 961.784 407.339 963.858 398.932 963.858C392.138 963.858 385.801 962.477 379.968 959.685L379.935 959.669L379.903 959.653C376.537 957.94 373.453 955.878 370.654 953.468V989.795C370.654 992.845 369.659 995.564 367.543 997.69C365.396 999.97 362.576 1001.03 359.388 1001.03C356.248 1001.03 353.475 999.93 351.269 997.73C349.128 995.595 348.121 992.863 348.121 989.795V916.078V916.059C348.235 907.086 350.348 898.93 354.513 891.662ZM395.691 943.327C400.7 943.327 405.065 942.16 408.872 939.889C412.74 937.473 415.78 934.25 418.017 930.175L418.023 930.164L418.029 930.154C420.354 926 421.538 921.337 421.538 916.097C421.538 910.738 420.349 906.089 418.044 902.067L418.023 902.03L418.003 901.993C415.762 897.815 412.73 894.614 408.895 892.32L408.872 892.306L408.849 892.291C405.043 889.919 400.686 888.706 395.691 888.706C390.816 888.706 386.445 889.913 382.505 892.309L382.496 892.314L382.487 892.32C378.652 894.614 375.62 897.815 373.379 901.993L373.372 902.006L373.365 902.019C371.151 906.05 370.006 910.716 370.006 916.097C370.006 921.354 371.144 926.03 373.372 930.188C375.606 934.252 378.639 937.468 382.497 939.88C386.432 942.169 390.808 943.327 395.691 943.327Z" fill="black"/>
<path fill-rule="evenodd" clip-rule="evenodd" d="M255.142 891.662C259.288 884.428 264.953 878.714 272.108 874.568C279.305 870.288 287.403 868.174 296.32 868.174C305.338 868.174 313.491 870.285 320.694 874.567C327.844 878.71 333.506 884.419 337.651 891.646C341.936 898.927 344.053 907.103 344.053 916.097C344.053 925.051 342.117 933.197 338.185 940.465C334.382 947.585 329.115 953.303 322.407 957.57L322.391 957.58L322.376 957.59C315.601 961.784 307.968 963.858 299.562 963.858C292.767 963.858 286.431 962.477 280.598 959.685L280.565 959.669L280.532 959.653C277.166 957.94 274.082 955.878 271.284 953.468V989.795C271.284 992.845 270.288 995.564 268.172 997.69C266.025 999.97 263.205 1001.03 260.017 1001.03C256.877 1001.03 254.105 999.93 251.898 997.73C249.758 995.595 248.75 992.863 248.75 989.795V916.078V916.059C248.864 907.086 250.978 898.93 255.142 891.662ZM296.32 943.327C301.329 943.327 305.694 942.16 309.501 939.889C313.369 937.473 316.409 934.25 318.647 930.175L318.653 930.164L318.658 930.154C320.983 926 322.168 921.337 322.168 916.097C322.168 910.738 320.978 906.089 318.673 902.067L318.652 902.03L318.633 901.993C316.391 897.815 313.36 894.614 309.525 892.32L309.501 892.306L309.478 892.291C305.672 889.919 301.316 888.706 296.32 888.706C291.446 888.706 287.074 889.913 283.135 892.309L283.126 892.314L283.116 892.32C279.281 894.614 276.25 897.815 274.008 901.993L274.001 902.006L273.994 902.019C271.781 906.05 270.636 910.716 270.636 916.097C270.636 921.354 271.774 926.03 274.002 930.188C276.236 934.252 279.269 937.468 283.126 939.88C287.062 942.169 291.438 943.327 296.32 943.327Z" fill="black"/>
<path fill-rule="evenodd" clip-rule="evenodd" d="M197.167 868.174C188.244 868.174 180.098 870.29 172.801 874.563C165.649 878.705 159.935 884.41 155.682 891.632L155.673 891.647L155.664 891.662C151.493 898.942 149.434 907.112 149.434 916.097C149.434 925.038 151.311 933.173 155.125 940.436L155.139 940.461L155.152 940.486C159.061 947.594 164.376 953.306 171.08 957.57L171.096 957.58L171.111 957.59C177.887 961.784 185.519 963.858 193.925 963.858C202.332 963.858 209.964 961.784 216.739 957.59L216.755 957.58L216.771 957.57C218.726 956.327 220.559 954.959 222.269 953.47C222.522 956.001 223.513 958.273 225.28 960.16L225.35 960.236L225.426 960.306C227.645 962.371 230.393 963.374 233.47 963.374C236.546 963.374 239.286 962.369 241.427 960.234C243.633 958.034 244.737 955.269 244.737 952.138V914.133L244.702 914.118C244.413 905.901 242.304 898.39 238.336 891.647C234.191 884.419 228.528 878.711 221.379 874.568C214.182 870.288 206.084 868.174 197.167 868.174ZM222.852 916.097C222.852 921.353 221.714 926.029 219.486 930.187C217.249 934.256 214.211 937.475 210.347 939.889C206.541 942.16 202.175 943.327 197.167 943.327C192.284 943.327 187.908 942.169 183.972 939.88C180.11 937.465 177.016 934.241 174.673 930.164C172.453 926.011 171.32 921.343 171.32 916.097C171.32 910.721 172.463 906.058 174.673 902.029C177.024 897.832 180.119 894.619 183.963 892.32L183.972 892.314L183.981 892.309C187.92 889.913 192.292 888.706 197.167 888.706C202.162 888.706 206.518 889.919 210.324 892.291L210.347 892.306L210.371 892.32C214.206 894.614 217.238 897.815 219.479 901.993L219.486 902.006L219.493 902.019C221.706 906.05 222.852 910.716 222.852 916.097Z" fill="black"/>
<path d="M32.3101 959.909C34.5165 962.11 37.2888 963.21 40.4289 963.21C43.6169 963.21 46.4363 962.146 48.5838 959.873C50.7661 957.679 51.8578 954.927 51.8578 951.813V906.644H121.055V951.813C121.055 954.944 122.159 957.709 124.365 959.909C126.572 962.11 129.344 963.21 132.484 963.21C135.69 963.21 138.523 962.134 140.675 959.835C142.746 957.622 143.751 954.882 143.751 951.813V842.397C143.751 839.282 142.781 836.493 140.64 834.338C138.492 832.064 135.673 831 132.484 831C129.361 831 126.602 832.089 124.402 834.265C122.122 836.406 121.055 839.218 121.055 842.397V885.789H51.8578V842.397C51.8578 839.235 50.8024 836.437 48.5486 834.3C46.4055 832.052 43.5996 831 40.4289 831C37.3061 831 34.5469 832.089 32.3464 834.265C30.067 836.406 29 839.218 29 842.397V951.813C29 954.944 30.1037 957.709 32.3101 959.909Z" fill="black"/>
<path d="M958.142 958.173L958.166 958.188L958.191 958.202C965.54 962.399 973.83 964.465 982.99 964.465C995.4 964.465 1005.94 960.59 1014.37 952.74L1014.41 952.703L1014.45 952.665C1016.5 950.612 1017.6 948.055 1017.26 945.15C1016.94 942.267 1015.41 939.872 1013.11 937.972C1011.08 936.265 1008.66 935.532 1006.03 935.819C1003.47 935.99 1001.12 937.057 999.03 938.762L999.02 938.768C996.92 940.485 994.59 941.771 992.02 942.634C989.55 943.388 986.56 943.795 982.99 943.795C977.71 943.795 973.21 942.607 969.4 940.325C965.51 937.891 962.455 934.646 960.205 930.545C958.077 926.473 956.974 921.754 956.974 916.314C956.974 910.508 958.093 905.625 960.217 901.569C962.362 897.476 965.29 894.368 969.03 892.166L969.05 892.152L969.08 892.137C972.79 889.852 977.12 888.67 982.17 888.67C989.3 888.67 995.13 891.169 999.88 896.203L999.91 896.236L999.94 896.267C1001.8 898.129 1003.96 899.421 1006.42 900L1006.51 900.02L1006.59 900.034C1009.23 900.5 1011.73 899.937 1013.91 898.38L1013.92 898.376V898.371C1016.3 896.654 1018.03 894.46 1018.67 891.736C1019.38 888.739 1018.38 885.987 1016.38 883.699C1011.9 878.525 1006.78 874.61 1001.03 872.023C995.28 869.327 988.98 868 982.17 868C973.12 868 964.98 870.066 957.844 874.275C950.737 878.356 945.141 884.079 941.083 891.385C937.002 898.73 935 907.066 935 916.314C935 925.358 937.008 933.583 941.083 940.917L941.096 940.942L941.111 940.966C945.28 948.148 950.97 953.893 958.142 958.173Z" fill="black"/>
<path d="M1524.79 958.367C1522.76 958.367 1520.95 957.904 1519.37 956.978C1517.79 956.022 1516.53 954.723 1515.6 953.079C1514.71 951.406 1514.26 949.509 1514.26 947.388C1514.26 945.267 1514.69 943.385 1515.56 941.741C1516.46 940.068 1517.68 938.754 1519.23 937.798C1520.79 936.842 1522.58 936.364 1524.61 936.364C1527.6 936.364 1530.09 937.559 1532.1 939.949C1532.45 940.397 1532.59 940.875 1532.5 941.383C1532.41 941.861 1532.11 942.294 1531.6 942.682C1531.21 942.951 1530.78 943.041 1530.3 942.951C1529.83 942.862 1529.41 942.623 1529.05 942.234C1527.85 940.92 1526.37 940.262 1524.61 940.262C1523.36 940.262 1522.25 940.561 1521.3 941.159C1520.34 941.756 1519.59 942.593 1519.06 943.668C1518.55 944.744 1518.29 945.984 1518.29 947.388C1518.29 948.792 1518.56 950.032 1519.1 951.108C1519.67 952.183 1520.43 953.02 1521.39 953.617C1522.37 954.215 1523.51 954.513 1524.79 954.513C1526.43 954.513 1527.76 954.08 1528.78 953.214C1529.2 952.855 1529.65 952.661 1530.12 952.631C1530.6 952.571 1531.02 952.691 1531.38 952.99C1531.86 953.408 1532.11 953.871 1532.14 954.379C1532.2 954.887 1532.04 955.335 1531.65 955.723C1529.83 957.486 1527.54 958.367 1524.79 958.367ZM1524.52 965C1522.1 965 1519.83 964.567 1517.71 963.7C1515.59 962.804 1513.72 961.564 1512.11 959.981C1510.5 958.367 1509.24 956.5 1508.34 954.379C1507.45 952.258 1507 949.957 1507 947.478C1507 945.058 1507.45 942.802 1508.34 940.711C1509.24 938.589 1510.48 936.737 1512.06 935.154C1513.68 933.54 1515.54 932.286 1517.67 931.389C1519.79 930.463 1522.07 930 1524.52 930C1526.94 930 1529.2 930.448 1531.29 931.344C1533.41 932.241 1535.26 933.496 1536.85 935.109C1538.46 936.722 1539.71 938.589 1540.61 940.711C1541.54 942.802 1542 945.058 1542 947.478C1542 949.957 1541.54 952.258 1540.61 954.379C1539.71 956.5 1538.46 958.367 1536.85 959.981C1535.23 961.564 1533.37 962.804 1531.24 963.7C1529.15 964.567 1526.91 965 1524.52 965ZM1524.43 961.325C1526.37 961.325 1528.18 960.967 1529.86 960.25C1531.53 959.533 1532.99 958.532 1534.25 957.247C1535.53 955.962 1536.53 954.484 1537.25 952.81C1537.97 951.137 1538.33 949.345 1538.33 947.433C1538.33 945.521 1537.97 943.728 1537.25 942.055C1536.53 940.382 1535.53 938.903 1534.25 937.618C1532.96 936.334 1531.48 935.333 1529.81 934.616C1528.14 933.899 1526.34 933.54 1524.43 933.54C1522.52 933.54 1520.73 933.899 1519.06 934.616C1517.38 935.333 1515.9 936.334 1514.62 937.618C1513.33 938.903 1512.33 940.382 1511.62 942.055C1510.9 943.728 1510.54 945.521 1510.54 947.433C1510.54 949.345 1510.9 951.137 1511.62 952.81C1512.33 954.484 1513.32 955.962 1514.57 957.247C1515.86 958.532 1517.34 959.533 1519.01 960.25C1520.68 960.967 1522.49 961.325 1524.43 961.325Z" fill="black"/>
<path d="M241.83 1021.02H252.82V1040.2H273.05V1021.02H284.04V1071H273.05V1049.44H252.82V1071H241.83V1021.02ZM306.315 1051.68H319.265L312.965 1033.34H312.825L306.315 1051.68ZM307.365 1021.02H318.635L337.325 1071H325.915L322.135 1059.87H303.445L299.525 1071H288.465L307.365 1021.02ZM352.625 1044.54H361.165C362.425 1044.54 363.638 1044.45 364.805 1044.26C365.971 1044.07 366.998 1043.72 367.885 1043.21C368.771 1042.65 369.471 1041.88 369.985 1040.9C370.545 1039.92 370.825 1038.64 370.825 1037.05C370.825 1035.46 370.545 1034.18 369.985 1033.2C369.471 1032.22 368.771 1031.47 367.885 1030.96C366.998 1030.4 365.971 1030.03 364.805 1029.84C363.638 1029.65 362.425 1029.56 361.165 1029.56H352.625V1044.54ZM341.635 1021.02H364.175C367.301 1021.02 369.961 1021.49 372.155 1022.42C374.348 1023.31 376.121 1024.5 377.475 1025.99C378.875 1027.48 379.878 1029.19 380.485 1031.1C381.138 1033.01 381.465 1035 381.465 1037.05C381.465 1039.06 381.138 1041.04 380.485 1043C379.878 1044.91 378.875 1046.62 377.475 1048.11C376.121 1049.6 374.348 1050.82 372.155 1051.75C369.961 1052.64 367.301 1053.08 364.175 1053.08H352.625V1071H341.635V1021.02ZM399.314 1044.54H407.854C409.114 1044.54 410.327 1044.45 411.494 1044.26C412.661 1044.07 413.687 1043.72 414.574 1043.21C415.461 1042.65 416.161 1041.88 416.674 1040.9C417.234 1039.92 417.514 1038.64 417.514 1037.05C417.514 1035.46 417.234 1034.18 416.674 1033.2C416.161 1032.22 415.461 1031.47 414.574 1030.96C413.687 1030.4 412.661 1030.03 411.494 1029.84C410.327 1029.65 409.114 1029.56 407.854 1029.56H399.314V1044.54ZM388.324 1021.02H410.864C413.991 1021.02 416.651 1021.49 418.844 1022.42C421.037 1023.31 422.811 1024.5 424.164 1025.99C425.564 1027.48 426.567 1029.19 427.174 1031.1C427.827 1033.01 428.154 1035 428.154 1037.05C428.154 1039.06 427.827 1041.04 427.174 1043C426.567 1044.91 425.564 1046.62 424.164 1048.11C422.811 1049.6 421.037 1050.82 418.844 1051.75C416.651 1052.64 413.991 1053.08 410.864 1053.08H399.314V1071H388.324V1021.02ZM447.964 1051.54L429.624 1021.02H441.944L453.634 1040.76L465.254 1021.02H477.504L458.954 1051.82V1071H447.964V1051.54ZM590.105 1044.54H598.645C599.905 1044.54 601.118 1044.45 602.285 1044.26C603.452 1044.07 604.478 1043.72 605.365 1043.21C606.252 1042.65 606.952 1041.88 607.465 1040.9C608.025 1039.92 608.305 1038.64 608.305 1037.05C608.305 1035.46 608.025 1034.18 607.465 1033.2C606.952 1032.22 606.252 1031.47 605.365 1030.96C604.478 1030.4 603.452 1030.03 602.285 1029.84C601.118 1029.65 599.905 1029.56 598.645 1029.56H590.105V1044.54ZM579.115 1021.02H601.655C604.782 1021.02 607.442 1021.49 609.635 1022.42C611.828 1023.31 613.602 1024.5 614.955 1025.99C616.355 1027.48 617.358 1029.19 617.965 1031.1C618.618 1033.01 618.945 1035 618.945 1037.05C618.945 1039.06 618.618 1041.04 617.965 1043C617.358 1044.91 616.355 1046.62 614.955 1048.11C613.602 1049.6 611.828 1050.82 609.635 1051.75C607.442 1052.64 604.782 1053.08 601.655 1053.08H590.105V1071H579.115V1021.02ZM625.805 1021.02H663.185V1030.26H636.795V1040.97H661.015V1049.51H636.795V1061.76H663.745V1071H625.805V1021.02ZM680.015 1046.22C680.015 1048.32 680.249 1050.37 680.715 1052.38C681.229 1054.34 682.022 1056.11 683.095 1057.7C684.169 1059.29 685.569 1060.57 687.295 1061.55C689.022 1062.48 691.122 1062.95 693.595 1062.95C696.069 1062.95 698.169 1062.48 699.895 1061.55C701.622 1060.57 703.022 1059.29 704.095 1057.7C705.169 1056.11 705.939 1054.34 706.405 1052.38C706.919 1050.37 707.175 1048.32 707.175 1046.22C707.175 1044.03 706.919 1041.9 706.405 1039.85C705.939 1037.8 705.169 1035.98 704.095 1034.39C703.022 1032.76 701.622 1031.47 699.895 1030.54C698.169 1029.56 696.069 1029.07 693.595 1029.07C691.122 1029.07 689.022 1029.56 687.295 1030.54C685.569 1031.47 684.169 1032.76 683.095 1034.39C682.022 1035.98 681.229 1037.8 680.715 1039.85C680.249 1041.9 680.015 1044.03 680.015 1046.22ZM669.025 1046.22C669.025 1042.49 669.585 1039.03 670.705 1035.86C671.825 1032.64 673.435 1029.84 675.535 1027.46C677.635 1025.08 680.202 1023.21 683.235 1021.86C686.315 1020.51 689.769 1019.83 693.595 1019.83C697.469 1019.83 700.922 1020.51 703.955 1021.86C706.989 1023.21 709.555 1025.08 711.655 1027.46C713.755 1029.84 715.365 1032.64 716.485 1035.86C717.605 1039.03 718.165 1042.49 718.165 1046.22C718.165 1049.86 717.605 1053.27 716.485 1056.44C715.365 1059.57 713.755 1062.3 711.655 1064.63C709.555 1066.96 706.989 1068.81 703.955 1070.16C700.922 1071.47 697.469 1072.12 693.595 1072.12C689.769 1072.12 686.315 1071.47 683.235 1070.16C680.202 1068.81 677.635 1066.96 675.535 1064.63C673.435 1062.3 671.825 1059.57 670.705 1056.44C669.585 1053.27 669.025 1049.86 669.025 1046.22ZM736.668 1044.54H745.208C746.468 1044.54 747.681 1044.45 748.848 1044.26C750.014 1044.07 751.041 1043.72 751.928 1043.21C752.814 1042.65 753.514 1041.88 754.028 1040.9C754.588 1039.92 754.868 1038.64 754.868 1037.05C754.868 1035.46 754.588 1034.18 754.028 1033.2C753.514 1032.22 752.814 1031.47 751.928 1030.96C751.041 1030.4 750.014 1030.03 748.848 1029.84C747.681 1029.65 746.468 1029.56 745.208 1029.56H736.668V1044.54ZM725.678 1021.02H748.218C751.344 1021.02 754.004 1021.49 756.198 1022.42C758.391 1023.31 760.164 1024.5 761.518 1025.99C762.918 1027.48 763.921 1029.19 764.528 1031.1C765.181 1033.01 765.508 1035 765.508 1037.05C765.508 1039.06 765.181 1041.04 764.528 1043C763.921 1044.91 762.918 1046.62 761.518 1048.11C760.164 1049.6 758.391 1050.82 756.198 1051.75C754.004 1052.64 751.344 1053.08 748.218 1053.08H736.668V1071H725.678V1021.02ZM772.367 1021.02H783.357V1061.76H807.717V1071H772.367V1021.02ZM813.861 1021.02H851.241V1030.26H824.851V1040.97H849.071V1049.51H824.851V1061.76H851.801V1071H813.861V1021.02ZM956.664 1021.02H994.044V1030.26H967.654V1040.97H991.874V1049.51H967.654V1061.76H994.604V1071H956.664V1021.02ZM1002.05 1021.02H1013.04V1061.76H1037.4V1071H1002.05V1021.02ZM1043.55 1021.02H1080.93V1030.26H1054.54V1040.97H1078.76V1049.51H1054.54V1061.76H1081.49V1071H1043.55V1021.02ZM1088.94 1021.02H1104.41L1116.1 1055.39H1116.24L1127.3 1021.02H1142.77V1071H1132.48V1035.58H1132.34L1120.09 1071H1111.62L1099.37 1035.93H1099.23V1071H1088.94V1021.02ZM1152.45 1021.02H1189.83V1030.26H1163.44V1040.97H1187.66V1049.51H1163.44V1061.76H1190.39V1071H1152.45V1021.02ZM1197.84 1021.02H1208.76L1229.62 1054.55H1229.76V1021.02H1240.05V1071H1229.06L1208.27 1037.54H1208.13V1071H1197.84V1021.02ZM1260.78 1030.26H1245.8V1021.02H1286.75V1030.26H1271.77V1071H1260.78V1030.26ZM1300 1054.41C1300 1056.09 1300.31 1057.51 1300.91 1058.68C1301.52 1059.85 1302.31 1060.8 1303.29 1061.55C1304.32 1062.25 1305.51 1062.79 1306.86 1063.16C1308.22 1063.49 1309.62 1063.65 1311.06 1063.65C1312.04 1063.65 1313.09 1063.58 1314.21 1063.44C1315.33 1063.25 1316.38 1062.93 1317.36 1062.46C1318.34 1061.99 1319.16 1061.36 1319.81 1060.57C1320.47 1059.73 1320.79 1058.68 1320.79 1057.42C1320.79 1056.07 1320.35 1054.97 1319.46 1054.13C1318.62 1053.29 1317.5 1052.59 1316.1 1052.03C1314.7 1051.47 1313.12 1050.98 1311.34 1050.56C1309.57 1050.14 1307.77 1049.67 1305.95 1049.16C1304.09 1048.69 1302.27 1048.13 1300.49 1047.48C1298.72 1046.78 1297.13 1045.89 1295.73 1044.82C1294.33 1043.75 1293.19 1042.42 1292.3 1040.83C1291.46 1039.2 1291.04 1037.24 1291.04 1034.95C1291.04 1032.38 1291.58 1030.17 1292.65 1028.3C1293.77 1026.39 1295.22 1024.8 1296.99 1023.54C1298.77 1022.28 1300.77 1021.35 1303.01 1020.74C1305.25 1020.13 1307.49 1019.83 1309.73 1019.83C1312.35 1019.83 1314.84 1020.13 1317.22 1020.74C1319.65 1021.3 1321.8 1022.23 1323.66 1023.54C1325.53 1024.85 1327 1026.53 1328.07 1028.58C1329.19 1030.59 1329.75 1033.04 1329.75 1035.93H1319.11C1319.02 1034.44 1318.69 1033.2 1318.13 1032.22C1317.62 1031.24 1316.92 1030.47 1316.03 1029.91C1315.15 1029.35 1314.12 1028.95 1312.95 1028.72C1311.83 1028.49 1310.6 1028.37 1309.24 1028.37C1308.36 1028.37 1307.47 1028.46 1306.58 1028.65C1305.7 1028.84 1304.88 1029.16 1304.13 1029.63C1303.43 1030.1 1302.85 1030.68 1302.38 1031.38C1301.92 1032.08 1301.68 1032.97 1301.68 1034.04C1301.68 1035.02 1301.87 1035.81 1302.24 1036.42C1302.62 1037.03 1303.34 1037.59 1304.41 1038.1C1305.53 1038.61 1307.05 1039.13 1308.96 1039.64C1310.92 1040.15 1313.47 1040.81 1316.59 1041.6C1317.53 1041.79 1318.81 1042.14 1320.44 1042.65C1322.12 1043.12 1323.78 1043.89 1325.41 1044.96C1327.05 1046.03 1328.45 1047.48 1329.61 1049.3C1330.83 1051.07 1331.43 1053.36 1331.43 1056.16C1331.43 1058.45 1330.99 1060.57 1330.1 1062.53C1329.22 1064.49 1327.89 1066.19 1326.11 1067.64C1324.39 1069.04 1322.22 1070.14 1319.6 1070.93C1317.04 1071.72 1314.05 1072.12 1310.64 1072.12C1307.89 1072.12 1305.21 1071.77 1302.59 1071.07C1300.03 1070.42 1297.74 1069.37 1295.73 1067.92C1293.77 1066.47 1292.21 1064.63 1291.04 1062.39C1289.88 1060.15 1289.32 1057.49 1289.36 1054.41H1300Z" fill="#FC6E00"/>
<path d="M530.56 1057.16C529.413 1058.28 528.187 1059.12 526.88 1059.68C525.6 1060.24 524.147 1060.52 522.52 1060.52C521.24 1060.52 520.027 1060.33 518.88 1059.96C517.76 1059.59 516.787 1059.04 515.96 1058.32C515.133 1057.57 514.48 1056.68 514 1055.64C513.52 1054.57 513.28 1053.36 513.28 1052C513.28 1050.99 513.453 1050.07 513.8 1049.24C514.147 1048.39 514.613 1047.63 515.2 1046.96C515.813 1046.27 516.507 1045.65 517.28 1045.12C518.053 1044.59 518.853 1044.12 519.68 1043.72C518.907 1042.79 518.253 1041.85 517.72 1040.92C517.213 1039.99 516.96 1038.89 516.96 1037.64C516.96 1036.65 517.16 1035.76 517.56 1034.96C517.987 1034.16 518.547 1033.48 519.24 1032.92C519.933 1032.33 520.72 1031.89 521.6 1031.6C522.507 1031.28 523.44 1031.12 524.4 1031.12C525.493 1031.12 526.507 1031.27 527.44 1031.56C528.4 1031.85 529.227 1032.29 529.92 1032.88C530.64 1033.44 531.2 1034.15 531.6 1035C532.027 1035.85 532.24 1036.84 532.24 1037.96C532.24 1039.64 531.747 1041.05 530.76 1042.2C529.8 1043.35 528.6 1044.31 527.16 1045.08L530.84 1049.6C531.133 1049.07 531.36 1048.52 531.52 1047.96C531.68 1047.37 531.8 1046.79 531.88 1046.2H536.8C536.667 1047.48 536.373 1048.72 535.92 1049.92C535.467 1051.12 534.84 1052.23 534.04 1053.24L539.84 1060H532.88L530.56 1057.16ZM522.68 1047.4C522.173 1047.61 521.68 1047.87 521.2 1048.16C520.72 1048.45 520.293 1048.8 519.92 1049.2C519.547 1049.6 519.24 1050.04 519 1050.52C518.787 1051 518.68 1051.53 518.68 1052.12C518.68 1052.63 518.787 1053.12 519 1053.6C519.24 1054.05 519.547 1054.45 519.92 1054.8C520.293 1055.12 520.72 1055.39 521.2 1055.6C521.707 1055.79 522.227 1055.88 522.76 1055.88C523.773 1055.88 524.653 1055.65 525.4 1055.2C526.173 1054.72 526.893 1054.11 527.56 1053.36L522.68 1047.4ZM527.28 1037.64C527.28 1036.89 527.013 1036.25 526.48 1035.72C525.973 1035.19 525.373 1034.92 524.68 1034.92C523.987 1034.92 523.387 1035.16 522.88 1035.64C522.373 1036.09 522.12 1036.69 522.12 1037.44C522.12 1038.35 522.36 1039.12 522.84 1039.76C523.32 1040.4 523.827 1041.05 524.36 1041.72C525.16 1041.21 525.84 1040.67 526.4 1040.08C526.987 1039.49 527.28 1038.68 527.28 1037.64Z" fill="#FC6E00"/>
<path d="M907.56 1057.16C906.413 1058.28 905.187 1059.12 903.88 1059.68C902.6 1060.24 901.147 1060.52 899.52 1060.52C898.24 1060.52 897.027 1060.33 895.88 1059.96C894.76 1059.59 893.787 1059.04 892.96 1058.32C892.133 1057.57 891.48 1056.68 891 1055.64C890.52 1054.57 890.28 1053.36 890.28 1052C890.28 1050.99 890.453 1050.07 890.8 1049.24C891.147 1048.39 891.613 1047.63 892.2 1046.96C892.813 1046.27 893.507 1045.65 894.28 1045.12C895.053 1044.59 895.853 1044.12 896.68 1043.72C895.907 1042.79 895.253 1041.85 894.72 1040.92C894.213 1039.99 893.96 1038.89 893.96 1037.64C893.96 1036.65 894.16 1035.76 894.56 1034.96C894.987 1034.16 895.547 1033.48 896.24 1032.92C896.933 1032.33 897.72 1031.89 898.6 1031.6C899.507 1031.28 900.44 1031.12 901.4 1031.12C902.493 1031.12 903.507 1031.27 904.44 1031.56C905.4 1031.85 906.227 1032.29 906.92 1032.88C907.64 1033.44 908.2 1034.15 908.6 1035C909.027 1035.85 909.24 1036.84 909.24 1037.96C909.24 1039.64 908.747 1041.05 907.76 1042.2C906.8 1043.35 905.6 1044.31 904.16 1045.08L907.84 1049.6C908.133 1049.07 908.36 1048.52 908.52 1047.96C908.68 1047.37 908.8 1046.79 908.88 1046.2H913.8C913.667 1047.48 913.373 1048.72 912.92 1049.92C912.467 1051.12 911.84 1052.23 911.04 1053.24L916.84 1060H909.88L907.56 1057.16ZM899.68 1047.4C899.173 1047.61 898.68 1047.87 898.2 1048.16C897.72 1048.45 897.293 1048.8 896.92 1049.2C896.547 1049.6 896.24 1050.04 896 1050.52C895.787 1051 895.68 1051.53 895.68 1052.12C895.68 1052.63 895.787 1053.12 896 1053.6C896.24 1054.05 896.547 1054.45 896.92 1054.8C897.293 1055.12 897.72 1055.39 898.2 1055.6C898.707 1055.79 899.227 1055.88 899.76 1055.88C900.773 1055.88 901.653 1055.65 902.4 1055.2C903.173 1054.72 903.893 1054.11 904.56 1053.36L899.68 1047.4ZM904.28 1037.64C904.28 1036.89 904.013 1036.25 903.48 1035.72C902.973 1035.19 902.373 1034.92 901.68 1034.92C900.987 1034.92 900.387 1035.16 899.88 1035.64C899.373 1036.09 899.12 1036.69 899.12 1037.44C899.12 1038.35 899.36 1039.12 899.84 1039.76C900.32 1040.4 900.827 1041.05 901.36 1041.72C902.16 1041.21 902.84 1040.67 903.4 1040.08C903.987 1039.49 904.28 1038.68 904.28 1037.64Z" fill="#FC6E00"/>
</g>
<defs>
<clipPath id="clip0_119_62">
<rect width="1612" height="1087" fill="white"/>
</clipPath>
</defs>
</svg>
